<?xml version="1.0" encoding="UTF-8"?>
<svg id="Camada_2" data-name="Camada 2" xmlns="http://www.w3.org/2000/svg" viewBox="0 0 347.66 343.34">
  <defs>
    <style>
      .cls-1 {
        letter-spacing: 0em;
      }

      .cls-1, .cls-2, .cls-3, .cls-4, .cls-5, .cls-6 {
        fill: #007c76;
      }

      .cls-1, .cls-2, .cls-3, .cls-4, .cls-5, .cls-7 {
        font-size: 63.35px;
      }

      .cls-2 {
        letter-spacing: -.02em;
      }

      .cls-8 {
        font-size: 75px;
      }

      .cls-8, .cls-9, .cls-7 {
        fill: #f9b333;
      }

      .cls-4 {
        letter-spacing: -.03em;
      }

      .cls-5 {
        letter-spacing: -.01em;
      }

      .cls-7 {
        letter-spacing: .02em;
      }

      .cls-10 {
        font-family: Outfit-Bold, Outfit;
        font-weight: 700;
      }
    </style>
  </defs>
  <g id="Camada_2-2" data-name="Camada 2">
    <g>
      <g>
        <g>
          <path class="cls-9" d="m177.17,23.67c-28.32,0-51.8,21.08-55.62,48.37,4.34.51,8.62,1.22,12.83,2.13,2.79-21.13,20.91-37.5,42.79-37.5s39.29,15.74,42.61,36.27c4.27-.71,8.59-1.23,12.93-1.52-4.08-26.99-27.43-47.75-55.54-47.75Z"/>
          <path class="cls-9" d="m177.17,0c-41.14,0-75.1,31.28-79.38,71.31,2.55-.14,5.11-.22,7.67-.22,1.82,0,3.63.05,5.43.12,4.25-32.79,32.34-58.2,66.27-58.2s61.94,25.35,66.25,58.1c4.41.04,8.81.29,13.19.75C252.58,31.56,218.49,0,177.17,0Z"/>
        </g>
        <path class="cls-6" d="m276.44,75.39c-11.13-2.86-22.65-4.31-34.24-4.31-24.09,0-47.65,6.31-68.4,18.26-20.13-11.61-43.47-18.26-68.34-18.26-11.59,0-23.11,1.45-34.24,4.31l-4.88,1.25v119.87c0,24.35,19.81,44.16,44.16,44.16h126.65c24.35,0,44.16-19.81,44.16-44.16v-119.87l-4.88-1.25Zm-34.24,8.69c8.81,0,17.58.92,26.12,2.75v15.75c-8.51-2.1-17.26-3.16-26.12-3.16-14.94,0-29.35,2.96-42.91,8.79-4.12-3.87-8.48-7.49-13.05-10.83,17.27-8.73,36.42-13.3,55.96-13.3Zm26.12,51.17c-8.34-3-17.09-4.53-26.12-4.53-7.33,0-14.53,1.03-21.49,3.04-3.5-5.39-7.39-10.55-11.66-15.46,10.57-3.91,21.68-5.88,33.16-5.88,8.89,0,17.66,1.21,26.12,3.6v19.23Zm-157.82,92.42c-17.18,0-31.16-13.98-31.16-31.16v-47.27c8.23-3.67,17-5.52,26.12-5.52,35.6,0,64.56,28.96,64.56,64.56v19.39h-59.51Zm72.51,0v-19.39c0-42.76-34.79-77.56-77.56-77.56-9.03,0-17.78,1.52-26.12,4.53v-19.23c8.46-2.39,17.23-3.6,26.12-3.6,52.86,0,95.86,43,95.86,95.86v19.39h-18.31Zm46.64,0h-15.34v-19.39c0-60.03-48.83-108.86-108.86-108.86-8.86,0-17.61,1.06-26.12,3.16v-15.74c8.54-1.83,17.31-2.75,26.12-2.75,53.27,0,98.81,33.71,116.42,80.92.15.41.31.83.46,1.24.22.62.44,1.24.66,1.86.3.89.6,1.78.88,2.68.09.28.18.56.27.84.35,1.13.68,2.26.99,3.39.07.26.14.52.21.78.29,1.09.58,2.18.84,3.27.03.14.07.28.1.43.62,2.6,1.15,5.22,1.6,7.86.02.11.04.22.05.33.21,1.24.4,2.49.57,3.74.01.09.03.18.04.28.35,2.61.61,5.23.8,7.86.02.29.04.58.06.87.06,1,.11,2,.15,3,.01.34.03.67.04,1.01.04,1.27.06,2.54.06,3.82v19.39Zm38.66-31.16c0,15.31-11.09,28.07-25.66,30.68v-18.91c0-1.13-.02-2.25-.04-3.37,0-.17-.01-.34-.02-.51,0-.14,0-.29-.01-.43,0-.2-.02-.4-.02-.6-.02-.63-.04-1.25-.07-1.88-.01-.29-.03-.57-.05-.85,0-.09-.01-.19-.02-.28,0-.15-.02-.3-.02-.45-.04-.64-.08-1.28-.13-1.91-.02-.2-.03-.4-.05-.6-.08-1.02-.17-2.03-.27-3.04,0-.05-.01-.1-.02-.15-1.74-17.18-6.66-33.68-14.47-48.79,4.8-1.12,9.73-1.69,14.72-1.69,9.12,0,17.89,1.86,26.12,5.52v47.27Z"/>
      </g>
      <text class="cls-10" transform="translate(0 327.89)"><tspan class="cls-8" x="0" y="0">e</tspan><tspan class="cls-7" x="41.1" y="0">-</tspan><tspan class="cls-5" x="71.44" y="0">C</tspan><tspan class="cls-3" x="114.4" y="0">est</tspan><tspan class="cls-2" x="203.41" y="0">A</tspan><tspan class="cls-3" x="248.01" y="0">g</tspan><tspan class="cls-4" x="285.01" y="0">r</tspan><tspan class="cls-1" x="311.17" y="0">o</tspan></text>
    </g>
  </g>
</svg>