<svg xmlns="http://www.w3.org/2000/svg" viewBox="0 0 87.03 121.07"><defs><style>.cls-1{fill:#3d2635;}.cls-1,.cls-2,.cls-5{fill-rule:evenodd;}.cls-2,.cls-6{fill:#31d95f;}.cls-3,.cls-5{fill:#00624f;}.cls-4{fill:#f9b333;}</style></defs><g id="Camada_2" data-name="Camada 2"><g id="Camada_1-2" data-name="Camada 1"><path class="cls-1" d="M48.19,37.25a11.83,11.83,0,1,1-3.53,16.36A11.84,11.84,0,0,1,48.19,37.25Z"/><path class="cls-1" d="M40.91,44.24A14,14,0,0,1,54.6,33.18c.35,0,.7,0,1,0a10.91,10.91,0,0,0-1-2A10.55,10.55,0,1,0,36.92,42.66a10.41,10.41,0,0,0,3.72,3.49A13.93,13.93,0,0,1,40.91,44.24Z"/><path class="cls-1" d="M74.87,34.63a10.55,10.55,0,0,0-14.59-3.15,10.36,10.36,0,0,0-2.36,2.1A14,14,0,0,1,68.17,50.66a10.53,10.53,0,0,0,6.7-16Z"/><path class="cls-2" d="M32.5,38a13.32,13.32,0,0,1,3.74-10.35.75.75,0,0,0-.55-1.26H21.62a.75.75,0,0,0-.47,1.34,132.2,132.2,0,0,1,10.66,9.56Z"/><path class="cls-2" d="M67.22,92.11A13,13,0,0,0,76.1,83c-1.06,1-2.11,2-3.13,3C71,87.94,69.07,90,67.22,92.11Z"/><path class="cls-2" d="M60.46,73.45A145.55,145.55,0,0,1,76.25,59.8a.73.73,0,0,0,.3-.59V52.48a.75.75,0,0,0-1.18-.61A151.22,151.22,0,0,0,55.56,68.54c-1.47,1.47-2.9,3-4.31,4.51.12.22.23.46.34.68A126.78,126.78,0,0,0,28,41.09,125.9,125.9,0,0,0,11.67,27.3a.75.75,0,0,0-1.19.62v6.75a.75.75,0,0,0,.29.59A120,120,0,0,1,23.1,46,119.68,119.68,0,0,1,51.82,92.15a.73.73,0,0,0,.7.51h7.22a132.37,132.37,0,0,1,9.43-10.51c2.29-2.29,4.67-4.48,7.12-6.6a.73.73,0,0,0,.26-.56V67.91a.75.75,0,0,0-1.22-.59,140.77,140.77,0,0,0-11.07,9.93q-3.92,3.91-7.51,8.14l.08.21C56,83.32,55,81.06,54,78.84c.15.33.31.65.45,1Q57.38,76.54,60.46,73.45Z"/><path class="cls-3" d="M60,28.91l3.9-.61C71.59,27,77.22,22.42,76.49,18.05h0L70.87,19c-7.44,1.24-13,5.59-12.63,9.84,0,.14,10.79-7.19,16.63-9A97.36,97.36,0,0,0,60,28.91Z"/><path class="cls-3" d="M54.63,27.07l-3.58-1.66c-7-3.34-11.19-9.3-9.29-13.3h0l5.15,2.44c6.81,3.24,10.93,8.93,9.45,12.92,0,.13-8.41-9.86-13.53-13.19A96.94,96.94,0,0,1,54.63,27.07Z"/><path class="cls-4" d="M59.62,19.07a21.6,21.6,0,0,1,4.74-2.58.76.76,0,0,0,.44-.93C57-8.11,22.55-3.67,21.22,21.44a.76.76,0,0,0,.76.79h5.44a.75.75,0,0,0,.74-.71C29.34,3.26,54.35,1.91,58.47,18.65A.74.74,0,0,0,59.62,19.07Z"/><path class="cls-5" d="M19.3,49.79c-2.42-2.42-5-4.73-7.59-6.93a.75.75,0,0,0-1.23.58v7.22a.75.75,0,0,0,.24.54c1.25,1.14,2.48,2.3,3.68,3.5A107.38,107.38,0,0,1,38.74,92.18a.75.75,0,0,0,.7.48h5.81a.75.75,0,0,0,.71-1A114.34,114.34,0,0,0,19.3,49.79Z"/><path class="cls-5" d="M10.48,79.59a13.06,13.06,0,0,0,7,11.56.76.76,0,0,0,1-1,90,90,0,0,0-8-13Z"/><path class="cls-5" d="M10.66,68.78A95.15,95.15,0,0,1,25.44,92.22a.73.73,0,0,0,.68.44H32a.76.76,0,0,0,.7-1,102.38,102.38,0,0,0-21-31.92.75.75,0,0,0-1.29.53V68.3A.74.74,0,0,0,10.66,68.78Z"/><path class="cls-6" d="M9.35,109.59c-5.55-2.92-11.66,2.9-8.47,8.5,1.88,3.25,7.05,3.94,9.88,1.51a.75.75,0,0,0,.05-1.11l-1-1a.75.75,0,0,0-1,0,3.63,3.63,0,0,1-4.43,0A.75.75,0,0,1,5,116.16h6.44a.75.75,0,0,0,.74-.62A5.79,5.79,0,0,0,9.35,109.59Zm-4.52,2.46c1.42-.9,3.7-.26,3.91,1.58H3.69A2.54,2.54,0,0,1,4.83,112.05Z"/><path class="cls-3" d="M50.36,109.59c-5.54-2.92-11.65,2.9-8.47,8.5,1.89,3.25,7.06,3.94,9.89,1.51a.75.75,0,0,0,0-1.11l-1-1a.75.75,0,0,0-1,0,3.64,3.64,0,0,1-4.44,0,.75.75,0,0,1,.54-1.28H52.4a.74.74,0,0,0,.74-.62A5.79,5.79,0,0,0,50.36,109.59Zm-4.52,2.46c1.43-.9,3.7-.26,3.92,1.58H44.7A2.58,2.58,0,0,1,45.84,112.05Z"/><rect class="cls-6" x="14.46" y="113.05" width="8.5" height="3.22" rx="0.75"/><path class="cls-3" d="M36.16,117.2c-5.73,2.23-9.54-4.37-5.87-8.76a5.4,5.4,0,0,1,7-.35.74.74,0,0,0,1-.07l1.45-1.46a.76.76,0,0,0-.09-1.14c-5.53-4.36-14.73-.72-14.56,6.86-.14,7.66,9.06,11.25,14.67,6.9a.75.75,0,0,0,.09-1.14l-1.47-1.47a.75.75,0,0,0-1-.06A4.87,4.87,0,0,1,36.16,117.2Z"/><path class="cls-3" d="M58.62,111.93a3.19,3.19,0,0,1,3,.52.74.74,0,0,0,1,0l1.06-1.06a.77.77,0,0,0,0-1.1c-2.23-2-6.55-2.1-8.36.32-1,1.44-.7,3.91.89,4.77,1.12.72,2.68.83,3.8,1.4a.66.66,0,0,1,.07,1.19,3.88,3.88,0,0,1-3.61-.68.73.73,0,0,0-1,.06l-1,1a.75.75,0,0,0,.06,1.12c2.2,1.78,6,2.22,8.19.59a3.65,3.65,0,0,0,.87-4.5c-.77-1.35-2.42-1.78-3.79-2.15C59,113.25,57.67,112.68,58.62,111.93Z"/><path class="cls-3" d="M70.54,104.29H68.37a.75.75,0,0,0-.75.75v3.32a.75.75,0,0,1-.75.75H65.73a.76.76,0,0,0-.75.75v1.62a.75.75,0,0,0,.75.75h1.14a.76.76,0,0,1,.75.75v7a.76.76,0,0,0,.75.75h2.17a.75.75,0,0,0,.75-.75v-7a.76.76,0,0,1,.75-.75h1.14a.74.74,0,0,0,.75-.75v-1.62a.75.75,0,0,0-.75-.75H72a.75.75,0,0,1-.75-.75V105A.74.74,0,0,0,70.54,104.29Z"/><path class="cls-3" d="M86.28,109.11H84.14a.75.75,0,0,0-.75.75v.25c-3.59-3.27-9.1.24-8.81,4.83-.29,4.6,5.2,8.09,8.81,4.85V120a.75.75,0,0,0,.75.75h2.14A.76.76,0,0,0,87,120V109.86A.76.76,0,0,0,86.28,109.11Zm-3.47,7.81c-2.37,2.26-5.65-.63-4.16-3.42a2.68,2.68,0,0,1,3.65-1A3,3,0,0,1,82.81,116.92Z"/></g></g></svg>